<svg xmlns="http://www.w3.org/2000/svg" xmlns:xlink="http://www.w3.org/1999/xlink" width="25" height="25" viewBox="0 0 25 25">
  <defs>
    <clipPath id="clip-path">
      <rect id="Rectangle_143" data-name="Rectangle 143" width="25" height="25" transform="translate(570 1794)" fill="#1566c0" stroke="#707070" stroke-width="1"/>
    </clipPath>
  </defs>
  <g id="Mask_Group_320" data-name="Mask Group 320" transform="translate(-570 -1794)" clip-path="url(#clip-path)">
    <g id="surface1" transform="translate(568.912 1792.913)">
      <path id="Path_40" data-name="Path 40" d="M13.587,1.087A12.432,12.432,0,0,0,5.978,3.679V3.261a1.63,1.63,0,0,0-3.261,0V7.426a12.5,12.5,0,1,0,10.87-6.339ZM2.289,15.211l-.076-.537,1.076-.153.151,1.072-1.074.157Zm.548,2.212-.185-.51,1.023-.372.363,1.027-1.021.365Zm1.257,2.522-.282-.463-.278-.467.93-.565.558.936Zm1.45,1.76-.363-.4-.369-.4.8-.735.739.8ZM7.316,23.14l-.442-.321L6.441,22.5l.635-.879.881.641ZM9.343,24.2l-.5-.223v0l-.495-.223.456-.989.495.227h0l.5.223Zm4.125-9.986c-1.641-.365-3.685-.819-3.685-3.157a3.674,3.674,0,0,1,.987-2.416,3.584,3.584,0,0,1,2.274-1V5.978H14.13V7.647a3.185,3.185,0,0,1,2.717,3.216l-1.087.013A2.118,2.118,0,0,0,13.587,8.7a2.51,2.51,0,0,0-2.371,1.138,2.716,2.716,0,0,0-.346,1.214c0,1.4,1.076,1.709,2.836,2.1,1.641.365,3.685.819,3.685,3.157,0,2.257-1.9,3.059-3.261,3.227V21.2H13.043V19.54A3.308,3.308,0,0,1,9.783,16.3h.543l.543,0c0,.223.1,2.178,2.717,2.178.11,0,2.717-.038,2.717-2.174C16.3,14.91,15.228,14.6,13.468,14.209ZM11.532,24.826,11,24.707l-.527-.125.244-1.059,1.061.25Zm2.274.163,0,.011c-.543-.015,0,.011-.543-.006l-.543-.015.034-1.087.836.025v0a10.326,10.326,0,1,0-8-16.848H8.7a.543.543,0,0,1,0,1.087H3.8V3.261a.543.543,0,1,1,1.087,0V6.195a11.411,11.411,0,1,1,8.914,18.795Z" fill="#1566c0"/>
    </g>
  </g>
</svg>
