<svg xmlns="http://www.w3.org/2000/svg" width="30" height="29.85" viewBox="0 0 30 29.85">
  <g id="icons8_facebook" transform="translate(0 0)">
    <path id="icons8_facebook-2" data-name="icons8_facebook" d="M16.5,2.008a14.992,14.992,0,0,0-1.74,29.808V20.975H12.338A1.97,1.97,0,0,1,10.367,19h0a1.97,1.97,0,0,1,1.971-1.971h2.42V14.41c0-4.344,2.117-6.251,5.727-6.251.536,0,.993.012,1.382.031a1.789,1.789,0,0,1,1.694,1.8h0a1.8,1.8,0,0,1-1.8,1.8H21.1c-1.533,0-2.069,1.454-2.069,3.092v2.156h2.805a1.446,1.446,0,0,1,1.43,1.667L23.1,19.753a1.447,1.447,0,0,1-1.43,1.226H19.028V31.849A14.993,14.993,0,0,0,16.5,2.008Z" transform="translate(-2 -2)" fill="#f0f4f8"/>
  </g>
</svg>
