<svg xmlns="http://www.w3.org/2000/svg" width="25" height="23.746" viewBox="0 0 25 23.746">
  <path id="icons8_language" d="M4.5,3A2.5,2.5,0,0,0,2,5.5v15A2.5,2.5,0,0,0,4.5,23H22l3.485,3.485A.888.888,0,0,0,27,25.857V5.5A2.5,2.5,0,0,0,24.5,3Zm5,5h0a1.5,1.5,0,0,1,1.391.944l3.021,7.583a1.076,1.076,0,0,1-1,1.474h0a1.075,1.075,0,0,1-1.013-.712l-.486-1.358H7.586L7.1,17.288A1.074,1.074,0,0,1,6.086,18h0a1.075,1.075,0,0,1-1-1.474L8.109,8.944A1.5,1.5,0,0,1,9.5,8ZM20.125,8h0a.86.86,0,0,1,.86.859v.82h2.682a.834.834,0,0,1,.833.834v.807A6.575,6.575,0,0,1,21.688,16.2c.2.033.406.06.618.08a.836.836,0,0,1,.75.836h0a.838.838,0,0,1-.9.84,9.5,9.5,0,0,1-2.653-.624,11.432,11.432,0,0,1-2.854.615.83.83,0,0,1-.9-.835h0a.834.834,0,0,1,.781-.825,8.681,8.681,0,0,0,1.06-.128,6.522,6.522,0,0,1-1.659-2.785.851.851,0,0,1,.825-1.081h.021a.862.862,0,0,1,.835.6,4.883,4.883,0,0,0,1.97,2.6,5.338,5.338,0,0,0,3.047-4.18H16.571a.819.819,0,0,1-.821-.819h0a.82.82,0,0,1,.82-.82h2.695V8.859A.86.86,0,0,1,20.125,8ZM9.5,10.539l-1.329,3.75h2.656Z" transform="translate(-2 -3)" fill="#b1b1b1"/>
</svg>
