<svg xmlns="http://www.w3.org/2000/svg" xmlns:xlink="http://www.w3.org/1999/xlink" width="24" height="24" viewBox="0 0 24 24">
  <defs>
    <radialGradient id="radial-gradient" cx="0.356" cy="0.817" r="0.948" gradientTransform="matrix(0.586, -0.811, 0.904, 0.653, -0.591, 0.572)" gradientUnits="objectBoundingBox">
      <stop offset="0" stop-color="#ffecb3"/>
      <stop offset="0.231" stop-color="#ffd54f"/>
      <stop offset="0.502" stop-color="#ff6f00"/>
      <stop offset="0.76" stop-color="#d81b60"/>
      <stop offset="1" stop-color="#304ffe"/>
    </radialGradient>
    <clipPath id="clip-path">
      <rect id="Rectangle_2" data-name="Rectangle 2" width="24" height="24" rx="7" transform="translate(1749 37)" stroke="#707070" stroke-width="1" fill="url(#radial-gradient)"/>
    </clipPath>
  </defs>
  <g id="Group_76" data-name="Group 76" transform="translate(-1749 -37)">
    <rect id="Rectangle_61" data-name="Rectangle 61" width="22" height="22" rx="7" transform="translate(1750 38)" fill="#fff"/>
    <g id="Mask_Group_8" data-name="Mask Group 8" clip-path="url(#clip-path)">
      <g id="surface1" transform="translate(1747.364 35.364)">
        <path id="Path_10" data-name="Path 10" d="M8.727,1.636A7.1,7.1,0,0,0,1.636,8.727v9.818a7.1,7.1,0,0,0,7.091,7.091h9.818a7.1,7.1,0,0,0,7.091-7.091V8.727a7.1,7.1,0,0,0-7.091-7.091ZM20.182,6a1.091,1.091,0,1,1-1.091,1.091A1.093,1.093,0,0,1,20.182,6ZM13.636,7.636a6,6,0,1,1-6,6A6,6,0,0,1,13.636,7.636Zm0,1.091a4.909,4.909,0,1,0,4.909,4.909A4.916,4.916,0,0,0,13.636,8.727Z" fill="url(#radial-gradient)"/>
      </g>
    </g>
  </g>
</svg>
