<svg id="Component_9_1" data-name="Component 9 – 1" xmlns="http://www.w3.org/2000/svg" width="30" height="30" viewBox="0 0 30 30">
  <path id="Exclusion_3" data-name="Exclusion 3" d="M15,30A15,15,0,0,1,4.393,4.393,15,15,0,1,1,25.606,25.606,14.9,14.9,0,0,1,15,30ZM12.167,8A4.172,4.172,0,0,0,8,12.167v6.666A4.172,4.172,0,0,0,12.167,23h6.666A4.172,4.172,0,0,0,23,18.833V12.167A4.172,4.172,0,0,0,18.833,8ZM15.5,19.667A4.167,4.167,0,1,1,19.667,15.5,4.171,4.171,0,0,1,15.5,19.667ZM15.5,13A2.5,2.5,0,1,0,18,15.5,2.5,2.5,0,0,0,15.5,13Zm5-1.666a.833.833,0,1,1,.833-.833A.834.834,0,0,1,20.5,11.334Z" fill="#f0f4f8"/>
</svg>
