<svg xmlns="http://www.w3.org/2000/svg" xmlns:xlink="http://www.w3.org/1999/xlink" width="26" height="26" viewBox="0 0 26 26">
  <defs>
    <clipPath id="clip-path">
      <rect id="Rectangle_133" data-name="Rectangle 133" width="26" height="26" transform="translate(0 0.459)" fill="#b4c1ce" stroke="#707070" stroke-width="1"/>
    </clipPath>
  </defs>
  <g id="Mask_Group_25" data-name="Mask Group 25" transform="translate(0 -0.459)" clip-path="url(#clip-path)">
    <g id="surface1" transform="translate(4.333 0)">
      <path id="Path_32" data-name="Path 32" d="M13.542.542A8.678,8.678,0,0,0,4.875,9.208c0,7.645,7.924,16.762,8.26,17.147a.537.537,0,0,0,.406.186.558.558,0,0,0,.406-.186c.336-.391,8.26-9.665,8.26-17.147A8.678,8.678,0,0,0,13.542.542Zm0,5.958a3.25,3.25,0,1,1-3.25,3.25A3.251,3.251,0,0,1,13.542,6.5Z" transform="translate(-4.875 -0.542)" fill="#b4c1ce"/>
    </g>
  </g>
</svg>
