<svg xmlns="http://www.w3.org/2000/svg" width="598.276" height="844.89" viewBox="0 0 598.276 844.89">
  <g id="Group_335" data-name="Group 335" transform="translate(-319 -151)">
    <rect id="Rectangle_51" data-name="Rectangle 51" width="595.276" height="841.89" rx="10" transform="translate(320.5 152.5)" fill="#fff" stroke="#0d47a1" stroke-miterlimit="10" stroke-width="3"/>
    <path id="Path_20" data-name="Path 20" d="M282.308,173.452a34.043,34.043,0,0,0-15.505-8.692c-11.042-3.054-23.258-2.584-38.059-.94-7.753.94-18.09,4.934-26.547,6.813-2.114-1.879-4.464-1.175-6.578-3.054-18.325-16.21-35-38.059-47.691-60.142-.94-1.645-.47-2.819-1.41-4.464,3.054-12.216,8.927-26.077,10.337-36.649,1.645-13.861,1.645-26.312-1.645-36.649-1.41-5.4-3.524-10.807-7.988-14.8S136.181,9,130.307,9c-10.1,0-20.439,5.4-24.9,13.861s-4.934,18.09-3.759,27.957c1.879,15.505,10.807,34.535,19.969,52.86-4.934,17.15-7.283,32.42-14.8,50.745-9.162,22.318-20.2,39.938-30.776,58.733-14.1,6.813-31.716,12.686-41.818,19.734-11.277,7.753-20.439,14.331-25.138,24.2-2.114,4.934-3.054,11.747-.7,17.62,2.349,6.108,7.283,10.337,12.451,13.391,10.807,5.638,23.023,2.114,32.42-4.464s18.325-16.68,27.017-28.662c4.7-6.343,8.927-16.68,13.391-24.2,14.1-6.578,23.728-13.391,39.7-19.029,22.084-7.988,42.288-11.042,62.962-15.505,16.915,11.747,34.3,20.439,53.564,20.439,11.042,0,19.5,0,27.252-4.229,7.753-4.464,11.747-14.331,11.747-22.084A24.2,24.2,0,0,0,282.308,173.452ZM40.094,264.605c-5.873,3.994-7.048,3.289-8.223,2.819q-.7-.352-.7-.7c1.41-2.349,7.048-8.457,16.21-14.8,1.41-.94,4.934-1.879,6.578-2.819C49.021,254.973,43.853,261.786,40.094,264.605ZM126.548,33.9c.47-.7.47-1.175.7-1.41.47-.235,1.175,0,3.054,0h.7a8.662,8.662,0,0,1,2.349,3.759c1.41,4.7,1.41,14.331,0,26.312-.235.94-.7,2.584-.94,3.759-1.645-5.873-6.813-13.861-7.283-18.325C124.434,40.716,125.609,35.547,126.548,33.9Zm-1.41,155.759c-5.4,1.879-8.692,4.464-13.861,6.578,5.638-11.747,12.451-20.674,17.62-33.125,4.464-10.807,5.168-19.969,8.692-30.776a270.465,270.465,0,0,0,36.649,44.872C157.559,181.439,142.054,183.554,125.139,189.662Zm140.254,2.114c-.47.235-5.873,1.41-15.505,1.41-3.759,0-8.458-4.7-12.451-5.873,4.934-.235,9.867-.47,14.1-.7a47.677,47.677,0,0,1,9.4.7,12.561,12.561,0,0,1,4.464,2.349v.7a3.483,3.483,0,0,0,.235,1.645A.23.23,0,0,0,265.393,191.776Z" transform="translate(470.594 423.587)" fill="none" stroke="#0d47a1" stroke-width="3"/>
  </g>
</svg>
