<svg xmlns="http://www.w3.org/2000/svg" xmlns:xlink="http://www.w3.org/1999/xlink" width="42" height="42" viewBox="0 0 42 42">
  <defs>
    <clipPath id="clip-path">
      <rect id="Rectangle_5" data-name="Rectangle 5" width="42" height="42" transform="translate(140 5587)" fill="#fff" stroke="#707070" stroke-width="1"/>
    </clipPath>
  </defs>
  <g id="Mask_Group_1" data-name="Mask Group 1" transform="translate(-140 -5587)" clip-path="url(#clip-path)">
    <g id="surface1" transform="translate(137.136 5584.138)">
      <path id="Path_2" data-name="Path 2" d="M37.256,44.862h-.045c-7.174-.235-15.578-7.189-21.368-12.983S3.091,17.677,2.867,10.537C2.785,8.031,8.934,3.576,9,3.531a2.958,2.958,0,0,1,4.094.291c.492.682,5.153,7.744,5.66,8.546a3.363,3.363,0,0,1-.209,3.311c-.362.69-1.562,2.8-2.125,3.784a50.159,50.159,0,0,0,5.533,6.3A50.247,50.247,0,0,0,28.259,31.3c.984-.563,3.095-1.764,3.784-2.125a3.378,3.378,0,0,1,3.292-.216c.858.526,7.9,5.209,8.55,5.66a2.448,2.448,0,0,1,.966,1.8,3.533,3.533,0,0,1-.667,2.3C44.142,38.788,39.739,44.862,37.256,44.862Z" fill="#fff"/>
    </g>
  </g>
</svg>
