<svg xmlns="http://www.w3.org/2000/svg" xmlns:xlink="http://www.w3.org/1999/xlink" width="26" height="26" viewBox="0 0 26 26">
  <defs>
    <clipPath id="clip-path">
      <rect id="Rectangle_127" data-name="Rectangle 127" width="26" height="26" transform="translate(0 -0.287)" fill="#b4c1ce" stroke="#707070" stroke-width="1"/>
    </clipPath>
  </defs>
  <g id="Mask_Group_23" data-name="Mask Group 23" transform="translate(0 0.287)" clip-path="url(#clip-path)">
    <g id="surface1" transform="translate(0.001 0.162)">
      <path id="Path_30" data-name="Path 30" d="M23.063,27.772h-.028c-4.441-.145-9.643-4.45-13.228-8.037S1.913,10.943,1.775,6.523C1.724,4.972,5.53,2.214,5.57,2.186a1.831,1.831,0,0,1,2.534.18c.3.422,3.19,4.794,3.5,5.29a2.082,2.082,0,0,1-.129,2.05c-.224.427-.967,1.733-1.316,2.343a31.051,31.051,0,0,0,3.425,3.9,31.105,31.105,0,0,0,3.905,3.428c.609-.349,1.916-1.092,2.343-1.316a2.091,2.091,0,0,1,2.038-.134c.531.325,4.891,3.224,5.293,3.5a1.515,1.515,0,0,1,.6,1.117,2.187,2.187,0,0,1-.413,1.424C27.326,24.012,24.6,27.772,23.063,27.772Z" transform="translate(-1.774 -1.772)" fill="#b4c1ce"/>
    </g>
  </g>
</svg>
