<svg id="Component_8_1" data-name="Component 8 – 1" xmlns="http://www.w3.org/2000/svg" width="30" height="30" viewBox="0 0 30 30">
  <path id="Exclusion_2" data-name="Exclusion 2" d="M15,30A15,15,0,0,1,4.393,4.393,15,15,0,1,1,25.606,25.606,14.9,14.9,0,0,1,15,30ZM8.237,19.494h0a.213.213,0,0,0-.231.152A.335.335,0,0,0,8.2,20a11.209,11.209,0,0,0,4.562,1,8.411,8.411,0,0,0,8.74-8.25c0-.065,0-.2,0-.336a.115.115,0,0,1,0-.02.116.116,0,0,0,0-.02.19.19,0,0,0,0-.029.2.2,0,0,1,0-.031l0-.08c0-.07,0-.131-.005-.167a8.671,8.671,0,0,0,1.461-1.3.193.193,0,0,0,.037-.2.125.125,0,0,0-.115-.072.177.177,0,0,0-.058.01l-.234.083a7.342,7.342,0,0,1-1.319.386,5.459,5.459,0,0,0,1.695-1.658.223.223,0,0,0,.024-.229A.17.17,0,0,0,22.826,9a.231.231,0,0,0-.1.024c-.115.054-.245.117-.383.185a10.015,10.015,0,0,1-1.791.749l-.024.008-.032.01a3.374,3.374,0,0,0-5.746,2.4c0,.03,0,.067,0,.107,0,.1,0,.2,0,.268A6.961,6.961,0,0,1,9.256,9.873a.276.276,0,0,0-.206-.121.213.213,0,0,0-.2.171,6.576,6.576,0,0,0-.118,1.351A3.335,3.335,0,0,0,10.835,14a3.069,3.069,0,0,1-.765.1,2.233,2.233,0,0,1-1-.252.277.277,0,0,0-.124-.029.186.186,0,0,0-.152.064.254.254,0,0,0-.023.223,3.723,3.723,0,0,0,2.928,2.316,1.93,1.93,0,0,1-.848.134l-.185,0h-.124c-.1,0-.461-.024-.687-.052a.717.717,0,0,0-.086-.005c-.076,0-.212.014-.261.1s-.013.19.084.337A3.915,3.915,0,0,0,12.6,18.385a7.6,7.6,0,0,1-4.355,1.11H8.237Z" fill="#f0f4f8"/>
</svg>
