<svg xmlns="http://www.w3.org/2000/svg" xmlns:xlink="http://www.w3.org/1999/xlink" width="24" height="24" viewBox="0 0 24 24">
  <defs>
    <clipPath id="clip-path">
      <rect id="Rectangle_21" data-name="Rectangle 21" width="24" height="24" rx="7" transform="translate(1710 37)" fill="#03a9f4" stroke="#707070" stroke-width="1"/>
    </clipPath>
  </defs>
  <g id="Group_75" data-name="Group 75" transform="translate(-1710 -37)">
    <rect id="Rectangle_60" data-name="Rectangle 60" width="22" height="22" rx="7" transform="translate(1711 38)" fill="#fff"/>
    <g id="Mask_Group_7" data-name="Mask Group 7" clip-path="url(#clip-path)">
      <g id="surface1" transform="translate(1708.364 35.364)">
        <path id="Path_9" data-name="Path 9" d="M20.182,1.636H7.091A5.461,5.461,0,0,0,1.636,7.091V20.18a5.461,5.461,0,0,0,5.455,5.457H20.182a5.461,5.461,0,0,0,5.455-5.455V7.091A5.46,5.46,0,0,0,20.182,1.636Zm-.415,9.535c0,.13.009.26.009.392A8.589,8.589,0,0,1,6.545,18.82a6.165,6.165,0,0,0,.72.043,6.039,6.039,0,0,0,3.752-1.3,3.029,3.029,0,0,1-2.823-2.1,3,3,0,0,0,1.366-.051,3.034,3.034,0,0,1-2.423-2.972V12.4a3.009,3.009,0,0,0,1.368.381A3.046,3.046,0,0,1,7.57,8.736,8.583,8.583,0,0,0,13.8,11.9a3.087,3.087,0,0,1-.079-.69,3.021,3.021,0,0,1,5.227-2.073,6.055,6.055,0,0,0,1.92-.735,3.048,3.048,0,0,1-1.33,1.677A6.1,6.1,0,0,0,21.273,9.6,6.166,6.166,0,0,1,19.766,11.171Z" fill="#03a9f4"/>
      </g>
    </g>
  </g>
</svg>
