<svg xmlns="http://www.w3.org/2000/svg" xmlns:xlink="http://www.w3.org/1999/xlink" width="25" height="25" viewBox="0 0 25 25">
  <defs>
    <clipPath id="clip-path">
      <rect id="Rectangle_144" data-name="Rectangle 144" width="25" height="25" transform="translate(570 1829)" fill="#1566c0" stroke="#707070" stroke-width="1"/>
    </clipPath>
  </defs>
  <g id="Mask_Group_321" data-name="Mask Group 321" transform="translate(-570 -1829)" clip-path="url(#clip-path)">
    <path id="Union_1" data-name="Union 1" d="M-16160-242.5a12.441,12.441,0,0,1,1.631-6.165v-4.165a1.63,1.63,0,0,1,1.63-1.63,1.631,1.631,0,0,1,1.631,1.63v.422a12.43,12.43,0,0,1,7.608-2.6,12.514,12.514,0,0,1,12.5,12.5,12.513,12.513,0,0,1-12.5,12.5A12.516,12.516,0,0,1-16160-242.5Zm12.719,11.413v-.012a11.418,11.418,0,0,0,11.193-11.4,11.427,11.427,0,0,0-11.412-11.417,11.39,11.39,0,0,0-8.7,4.023v-2.936a.544.544,0,0,0-.544-.543.546.546,0,0,0-.543.543v4.891h4.891a.541.541,0,0,0,.544-.543.544.544,0,0,0-.544-.543h-3.106a10.3,10.3,0,0,1,8-3.8,10.34,10.34,0,0,1,10.325,10.33,10.339,10.339,0,0,1-10.325,10.326v0l-.836-.028-.032,1.087.543.016a2.669,2.669,0,0,0,.272,0s0,0,.019,0Zm-3.334-.418.527.122.535.122.243-1.054-1.058-.251Zm-2.125-.84.5.223v0l.5.223.45-.99-.5-.223h0l-.5-.227Zm-1.906-1.245.435.32.441.32.641-.88-.88-.641Zm-1.63-1.6.369.4.364.4.8-.738-.738-.8Zm-1.278-1.886.28.466.28.462.929-.556-.556-.937Zm-.88-2.1.183.507.183.515,1.022-.365-.365-1.03Zm-.437-2.239.073.535.076.539,1.075-.158-.15-1.071Z" transform="translate(16730 2084)" fill="#1566c0"/>
    <text id="YR" transform="translate(576 1846)" fill="#fff" stroke="rgba(0,0,0,0)" stroke-width="1" font-size="12" font-family="SegoeUI-Light, Segoe UI" font-weight="300"><tspan x="0" y="0">YR</tspan></text>
  </g>
</svg>
