<svg xmlns="http://www.w3.org/2000/svg" xmlns:xlink="http://www.w3.org/1999/xlink" width="26" height="26" viewBox="0 0 26 26">

  <g id="Mask_Group_216" data-name="Mask Group 216" transform="translate(-45 -420)" clip-path="url(#clip-path)">
    <g id="surface1" transform="translate(43.869 418.87)">
      <path id="Path_2334" data-name="Path 2334" d="M14.13,1.13a13,13,0,1,0,13,13A13.008,13.008,0,0,0,14.13,1.13Zm0,1.13A11.87,11.87,0,1,1,2.261,14.13,11.861,11.861,0,0,1,14.13,2.261Zm0,1.13A10.739,10.739,0,1,0,24.87,14.13,10.751,10.751,0,0,0,14.13,3.391Zm-.565,3.957H14.7a.566.566,0,0,1,.565.565v7.348a.566.566,0,0,1-.565.565h-1.13A.566.566,0,0,1,13,15.261V7.913A.566.566,0,0,1,13.565,7.348Zm0,10.739H14.7a.566.566,0,0,1,.565.565v1.13a.566.566,0,0,1-.565.565h-1.13A.566.566,0,0,1,13,19.783v-1.13A.566.566,0,0,1,13.565,18.087Z" fill="#c9c5d2"/>
    </g>
  </g>
</svg>
