<svg xmlns="http://www.w3.org/2000/svg" xmlns:xlink="http://www.w3.org/1999/xlink" width="18" height="18" viewBox="0 0 18 18">
  <defs>
    <clipPath id="clip-path">
      <rect id="Rectangle_664" data-name="Rectangle 664" width="18" height="18" transform="translate(226 135)" fill="#fff"/>
    </clipPath>
  </defs>
  <g id="Mask_Group_152" data-name="Mask Group 152" transform="translate(-226 -135)" clip-path="url(#clip-path)">
    <g id="surface1" transform="translate(225.217 134.217)">
      <path id="Path_2261" data-name="Path 2261" d="M8.217.783A1.18,1.18,0,0,0,7.043,1.957v.783H3.13a.391.391,0,1,0,0,.783h.391V17.609A1.176,1.176,0,0,0,4.7,18.783H14.87a1.176,1.176,0,0,0,1.174-1.174V3.522h.391a.391.391,0,1,0,0-.783H12.522V1.957A1.18,1.18,0,0,0,11.348.783Zm0,.783h3.13a.39.39,0,0,1,.391.391v.783H7.826V1.957A.39.39,0,0,1,8.217,1.565ZM7.043,7.826a.391.391,0,0,1,.277.115L9.783,10.4l2.462-2.462a.391.391,0,0,1,.553.553l-2.462,2.462L12.8,13.419a.391.391,0,1,1-.553.553L9.783,11.51,7.32,13.972a.391.391,0,0,1-.553-.553l2.462-2.462L6.767,8.494a.391.391,0,0,1,.277-.668Z" fill="#fff"/>
    </g>
  </g>
</svg>
