<svg xmlns="http://www.w3.org/2000/svg" xmlns:xlink="http://www.w3.org/1999/xlink" width="18" height="18" viewBox="0 0 18 18">
  <defs>
    <clipPath id="clip-path">
      <rect id="Rectangle_664" data-name="Rectangle 664" width="18" height="18" transform="translate(23 11.025)" fill="#fff"/>
    </clipPath>
  </defs>
  <g id="Mask_Group_183" data-name="Mask Group 183" transform="translate(-23 -11.025)" clip-path="url(#clip-path)">
    <g id="surface1" transform="translate(22.625 10.275)">
      <path id="Path_2294" data-name="Path 2294" d="M15.75,7.875H3A1.127,1.127,0,0,0,1.875,9v8.625A1.127,1.127,0,0,0,3,18.75H15.75a1.127,1.127,0,0,0,1.125-1.125V9A1.127,1.127,0,0,0,15.75,7.875ZM4.875,14.25a.75.75,0,1,1,.75-.75A.75.75,0,0,1,4.875,14.25Zm3,0a.75.75,0,1,1,.75-.75A.75.75,0,0,1,7.875,14.25Zm3,0a.75.75,0,1,1,.75-.75A.75.75,0,0,1,10.875,14.25Zm3,0a.75.75,0,1,1,.75-.75A.75.75,0,0,1,13.875,14.25ZM4.5,7.125v-1.5A4.877,4.877,0,0,1,9.371.75h.009A4.877,4.877,0,0,1,14.25,5.621v1.5H13.5v-1.5A4.125,4.125,0,0,0,9.379,1.5H9.371A4.125,4.125,0,0,0,5.25,5.621v1.5Z" fill="#fff"/>
    </g>
  </g>
</svg>
