<svg id="Delete_sm_" data-name="Delete (sm)" xmlns="http://www.w3.org/2000/svg" xmlns:xlink="http://www.w3.org/1999/xlink" width="20" height="20" viewBox="0 0 20 20">

  <rect id="Rectangle_649" data-name="Rectangle 649" width="9" height="9" rx="4.5" transform="translate(5.238 5.238)" fill="#f2c0b6" opacity="0"/>
  <g id="Mask_Group_70" data-name="Mask Group 70" clip-path="url(#clip-path)">
    <g id="surface1" transform="translate(2.168 0)">
      <path id="Path_193" data-name="Path 193" d="M10.649,1.3a1.311,1.311,0,0,0-1.3,1.3v.87H5a.435.435,0,1,0,0,.87h.435V20a1.307,1.307,0,0,0,1.3,1.3h11.3a1.307,1.307,0,0,0,1.3-1.3V4.348h.435a.435.435,0,1,0,0-.87H15.432v-.87a1.311,1.311,0,0,0-1.3-1.3Zm0,.87h3.478a.433.433,0,0,1,.435.435v.87H10.214v-.87A.433.433,0,0,1,10.649,2.174ZM9.345,9.13a.435.435,0,0,1,.307.127l2.736,2.736,2.736-2.736a.435.435,0,0,1,.615.615L13,12.609l2.736,2.736a.435.435,0,1,1-.615.615l-2.736-2.736L9.652,15.96a.435.435,0,1,1-.615-.615l2.736-2.736L9.037,9.873a.435.435,0,0,1,.307-.742Z" transform="translate(-4.556 -1.304)" fill="#FFFFFF"/>
    </g>
  </g>
</svg>
