<svg xmlns="http://www.w3.org/2000/svg" xmlns:xlink="http://www.w3.org/1999/xlink" width="26" height="26" viewBox="0 0 26 26">
  <g id="Mask_Group_217" data-name="Mask Group 217" transform="translate(-45 -420)" clip-path="url(#clip-path)">
    <g id="surface1" transform="translate(44.506 419.951)">
      <path id="Path_2335" data-name="Path 2335" d="M15.987.049a.511.511,0,0,0-.277.081A41.577,41.577,0,0,1,11.12,1.872,24.155,24.155,0,0,0,6.545,3.663C5.9,4.211,2.865,8.441,2.865,9.8a28.533,28.533,0,0,0,2.1,5.714,7.25,7.25,0,0,1,3.272-3.7,4.839,4.839,0,0,0-.293-.944A5.439,5.439,0,0,0,10.11,8.922a5.022,5.022,0,0,0,2.621.407c-.7.851-1.475,1.9-1.758,2.279a14.589,14.589,0,0,0-2.214,1.123c-1.484.928-3.093,2.365-2.93,4.2a2.1,2.1,0,0,0,.081.309c.018.071.024.14.049.212a2.654,2.654,0,0,0,.114.244c.033.067.059.146.1.212s.092.136.146.212c.045.059.081.122.13.179s.142.144.212.212c.053.051.106.1.163.146.075.063.146.122.228.179.059.041.116.094.179.13.09.053.183.085.277.13.061.028.132.057.2.081a2.868,2.868,0,0,0,.326.1c.055.014.106.037.163.049a2.794,2.794,0,0,0,.5.049c1.616,0,3.093-1.268,4.168-2.2.283-.246.535-.462.749-.619a1.6,1.6,0,0,1,.212-.13c.041-.022.1-.043.146-.065s.092-.057.147-.081c.071-.031.149-.065.228-.1.037-.014.075-.018.114-.033.14-.055.285-.12.44-.179a11.176,11.176,0,0,0,4.559-2.8,12.283,12.283,0,0,0,2.2-4.445c.6-1.742,1.168-3.4,2.247-4.135a.515.515,0,0,0,.163-.668C22.662,1.239,17.652.049,15.987.049Zm-1.3,17.127a2.472,2.472,0,0,0-.44.212h-.016V17.4c-.177.13-.4.311-.684.554-1.132.979-2.849,2.458-4.852,2.458a4.013,4.013,0,0,1-3.793-2.9,5.667,5.667,0,0,0-.733,2.8,5.731,5.731,0,1,0,10.517-3.142Z" fill="#c9c5d2"/>
    </g>
  </g>
</svg>
