<svg xmlns="http://www.w3.org/2000/svg" xmlns:xlink="http://www.w3.org/1999/xlink" width="26" height="26" viewBox="0 0 26 26">

  <g id="Mask_Group_214" data-name="Mask Group 214" transform="translate(-45 -328)" clip-path="url(#clip-path)">
    <g id="surface1" transform="translate(45 328)">
      <path id="Path_2332" data-name="Path 2332" d="M2.4,1.56A2.449,2.449,0,0,0,0,4.046,3.769,3.769,0,0,0,.553,5.574a3.942,3.942,0,0,1,.52,1.414,2.73,2.73,0,0,1-.325.991A6.569,6.569,0,0,0,0,10.92a6.343,6.343,0,0,0,.731,2.892,2.757,2.757,0,0,1,.341,1.04A3.82,3.82,0,0,1,.536,16.3,3.606,3.606,0,0,0,0,17.794,2.449,2.449,0,0,0,2.4,20.28a1.79,1.79,0,0,0,1.137-.552,1.8,1.8,0,0,1,1.235-.552,2.181,2.181,0,0,1,1.284.5,2.722,2.722,0,0,0,1.544.6,3.824,3.824,0,0,0,1.722-.569,3.555,3.555,0,0,1,1.593-.536,3.555,3.555,0,0,1,1.592.536,3.832,3.832,0,0,0,1.722.569,3.562,3.562,0,0,0,1.787-.666,2.486,2.486,0,0,1,1.04-.439,2.158,2.158,0,0,1,1.024.5,2.474,2.474,0,0,0,1.349.6,2.448,2.448,0,0,0,2.405-2.486,3.768,3.768,0,0,0-.553-1.528,3.942,3.942,0,0,1-.52-1.414,3.057,3.057,0,0,1,.341-1.056,6.688,6.688,0,0,0,.731-2.876,6.436,6.436,0,0,0-.715-2.811,3.141,3.141,0,0,1-.358-1.121A3.819,3.819,0,0,1,21.3,5.541a3.606,3.606,0,0,0,.536-1.5A2.449,2.449,0,0,0,19.435,1.56a1.766,1.766,0,0,0-1.138.553,1.8,1.8,0,0,1-1.235.569,2.191,2.191,0,0,1-1.284-.52,2.688,2.688,0,0,0-1.544-.6,3.783,3.783,0,0,0-1.722.569,3.536,3.536,0,0,1-1.592.553,3.536,3.536,0,0,1-1.593-.553A3.783,3.783,0,0,0,7.6,1.56a3.581,3.581,0,0,0-1.8.666,2.483,2.483,0,0,1-1.024.455,2.2,2.2,0,0,1-1.024-.52A2.445,2.445,0,0,0,2.4,1.56Zm21.19,4.16a1.766,1.766,0,0,0-1.138.552,3.221,3.221,0,0,1-.552.406,1.16,1.16,0,0,0-.1.293,3.822,3.822,0,0,0,.26.7,7.47,7.47,0,0,1,.813,3.25,7.65,7.65,0,0,1-.812,3.3,5.722,5.722,0,0,0-.26.634,5.736,5.736,0,0,0,.406.926,4.556,4.556,0,0,1,.666,2.015,3.488,3.488,0,0,1-3.445,3.526,3.378,3.378,0,0,1-1.95-.8c-.124-.087-.315-.207-.439-.276-.134.061-.337.187-.488.276a4.526,4.526,0,0,1-2.324.8,4.741,4.741,0,0,1-2.194-.683,2.874,2.874,0,0,0-1.121-.422,2.885,2.885,0,0,0-1.121.422A4.734,4.734,0,0,1,7.6,21.32a3.68,3.68,0,0,1-2.112-.764c-.351-.234-.492-.329-.666-.341-.041.081-.089.165-.13.244a3.577,3.577,0,0,0-.536,1.5,2.449,2.449,0,0,0,2.4,2.486A1.79,1.79,0,0,0,7.7,23.887a1.8,1.8,0,0,1,1.235-.552,2.181,2.181,0,0,1,1.284.5,2.722,2.722,0,0,0,1.544.6,3.824,3.824,0,0,0,1.722-.569,3.555,3.555,0,0,1,1.593-.536,3.555,3.555,0,0,1,1.592.536,3.832,3.832,0,0,0,1.722.569,3.562,3.562,0,0,0,1.788-.666,2.486,2.486,0,0,1,1.04-.439,2.158,2.158,0,0,1,1.024.5,2.474,2.474,0,0,0,1.349.6A2.448,2.448,0,0,0,26,21.954a3.768,3.768,0,0,0-.553-1.528,3.942,3.942,0,0,1-.52-1.414,3.057,3.057,0,0,1,.341-1.056A6.688,6.688,0,0,0,26,15.08a6.436,6.436,0,0,0-.715-2.811,3.141,3.141,0,0,1-.358-1.121A3.819,3.819,0,0,1,25.464,9.7,3.606,3.606,0,0,0,26,8.206,2.449,2.449,0,0,0,23.595,5.72ZM4.68,6.24H17.16V15.6H4.68Z" fill="#c9c5d2"/>
    </g>
  </g>
</svg>
