<svg xmlns="http://www.w3.org/2000/svg" xmlns:xlink="http://www.w3.org/1999/xlink" width="18" height="18" viewBox="0 0 18 18">
  <defs>
    <clipPath id="clip-path">
      <rect id="Rectangle_664" data-name="Rectangle 664" width="18" height="18" transform="translate(1150 403)" fill="#072749"/>
    </clipPath>
  </defs>
  <g id="Mask_Group_198" data-name="Mask Group 198" transform="translate(-1150 -403)" clip-path="url(#clip-path)">
    <g id="surface1" transform="translate(1149.031 401.73)">
      <path id="Path_2314" data-name="Path 2314" d="M7.292,1.27a.837.837,0,0,0-.576.262L2.553,5.694l-.6.589.6.589,4.163,4.163A.838.838,0,1,0,7.894,9.857L5.158,7.121H9.609a7.511,7.511,0,0,1,5.158,1.558,4.942,4.942,0,0,1,1.545,3.888,12.065,12.065,0,0,1-1.126,5.459.838.838,0,0,0,1.466.812,14.17,14.17,0,0,0,1.335-6.27,6.734,6.734,0,0,0-2.108-5.145,9.136,9.136,0,0,0-6.27-1.977H5.158L7.894,2.71a.838.838,0,0,0-.6-1.44Z" fill="#072749"/>
    </g>
  </g>
</svg>
