<svg xmlns="http://www.w3.org/2000/svg" xmlns:xlink="http://www.w3.org/1999/xlink" viewBox="0 0 423.83 481.02"><defs><style>.cls-1{isolation:isolate;}.cls-2{fill:#0088ba;}.cls-3{fill:#4e4d9b;}.cls-4,.cls-5,.cls-6,.cls-7{mix-blend-mode:darken;}.cls-4{fill:url(#linear-gradient);}.cls-5{fill:url(#linear-gradient-2);}.cls-6{fill:url(#linear-gradient-3);}.cls-7{fill:url(#linear-gradient-4);}.cls-8{fill:none;stroke:#0088ba;stroke-miterlimit:10;}</style><linearGradient id="linear-gradient" x1="166.99" y1="185.68" x2="199.42" y2="145.85" gradientUnits="userSpaceOnUse"><stop offset="0" stop-color="#1d1d1b"/><stop offset="1" stop-color="#1d1d1b" stop-opacity="0"/></linearGradient><linearGradient id="linear-gradient-2" x1="260.56" y1="186.29" x2="230.26" y2="145.61" xlink:href="#linear-gradient"/><linearGradient id="linear-gradient-3" x1="256.33" y1="184.01" x2="283.56" y2="150.48" xlink:href="#linear-gradient"/><linearGradient id="linear-gradient-4" x1="216.13" y1="380.69" x2="214.09" y2="195.84" gradientUnits="userSpaceOnUse"><stop offset="0.32" stop-color="#1d1d1b"/><stop offset="1" stop-color="#1d1d1b" stop-opacity="0"/></linearGradient></defs><g class="cls-1"><g id="Layer_1" data-name="Layer 1"><path class="cls-2" d="M215.17,12.09C116.53,12.09,36.28,92.34,36.28,191s80.25,178.89,178.89,178.89S394.07,289.63,394.07,191,313.82,12.09,215.17,12.09Zm0,332.79A153.19,153.19,0,0,1,117,309.41l53-92.11,45.24,89.64,44.44-89.59,53.6,92.09A153.22,153.22,0,0,1,215.17,344.88ZM184.94,191.35l29.39-51.46,30.3,51.59-29.55,59.59Zm146.78,100-58.5-100.54L324.4,98.72l-53-42.93H158.61l-56,42.78h41.19l23.3-17.78h95.51l29.77,24.13-33.77,60.77-.05.1-.62-1.06L214,90,170.66,166,156.31,191,98.57,291.31A153.22,153.22,0,0,1,61.28,191c0-84.86,69-153.9,153.89-153.9s153.9,69,153.9,153.9A153.21,153.21,0,0,1,331.72,291.38Z"/><polygon class="cls-3" points="258.58 165.69 258.53 165.79 257.91 164.73 257.96 164.62 258.58 165.69"/><polygon class="cls-4" points="184.94 191.35 170.66 165.95 194.52 124.16 208.12 150.75 184.94 191.35"/><polygon class="cls-5" points="244.63 191.48 258.53 165.79 234.09 124.16 220.71 150.75 244.63 191.48"/><polygon class="cls-6" points="273.22 190.84 258.53 165.79 279.79 127.51 295.49 150.75 273.22 190.84"/><path class="cls-7" d="M117,309.41a154.83,154.83,0,0,1-18.43-18.1L170.66,166l44.42,85.12,43.45-85.28,73.19,125.59a141.73,141.73,0,0,1-18.41,18.06l-53.6-92.09-44.44,89.59L170,217.3Z"/><path class="cls-2" d="M144.63,389.12c6.64,0,11.28,2.78,13.87,8.4a17.33,17.33,0,0,1,.93,5.37v31c0,6.15-2.54,10.35-7.67,12.64A20.24,20.24,0,0,1,143.9,448h-.39c-7.27,0-12.11-2.54-14.5-7.67a18.33,18.33,0,0,1-1.17-7.08V403.52c0-6.49,2.59-10.84,7.81-13.08a19.55,19.55,0,0,1,6.93-1.32Zm-4.24,12.11a6.68,6.68,0,0,0-1.18,4.3v24.65c0,3.08.59,4.94,1.71,5.52a5.34,5.34,0,0,0,2.2.59h.93a2.85,2.85,0,0,0,.73-.1c.05,3.52-2.39,6.2-5.71,8.89,5.66-2.3,8.35-5.81,8.1-10.45a6.9,6.9,0,0,0,.78-3.81v-26c0-2.63-.87-4.1-2.68-4.39l-1.71-.25a4.42,4.42,0,0,0-1,0c.2-2.49,2-4.78,5.23-6.83C143.9,394,140.39,396.88,140.39,401.23Z"/><path class="cls-2" d="M211.42,388.78a3.61,3.61,0,0,1,3.66,2.1,4.68,4.68,0,0,1,.49,2.29v54.64H203l-.05-23.44.1-.34,2.39-6.35c-1,1.86-2.39,5-4.25,9.33s-3.86,6.54-5.91,6.54h-.19c-1.66,0-3.61-1.95-5.81-5.91s-3.86-6.73-5-8.44l3.12,6.39,0,22.22H174.79V393.17a6.63,6.63,0,0,1,.44-2.29,3.62,3.62,0,0,1,3.67-2.1h.53a4.83,4.83,0,0,1,4.4,2.44,224.07,224.07,0,0,1,11.33,22.26l4.49,9.33-4-10.3a194.74,194.74,0,0,1,10.84-21.29,4.74,4.74,0,0,1,4.4-2.44Z"/><path class="cls-2" d="M262.08,399.18a14.62,14.62,0,0,1,.64,4.83v43.41l-.39.44H251.2l-.44-.44V433.26h-12.5l4.39,1.17v13l-.44.44H231.32l-.39-.44V403.77c0-8.84,6.4-14,13.48-14.85S259.3,391.37,262.08,399.18ZM246.7,397a10.13,10.13,0,0,1,1.86,3.61,7.4,7.4,0,0,0-1.76-.34c-2.78-.15-4.15,1.47-4.15,4.79v16h8.11V403.82a3.44,3.44,0,0,0-.44-1.81c-1.18-4.64-4.1-6.74-6.6-8.89C244.75,394.49,245.73,395.81,246.7,397Z"/><path class="cls-2" d="M308.94,397.22a17.89,17.89,0,0,1,.93,5.38v10.84a19.35,19.35,0,0,1-.29,3.41v-.19c-1.61,4.64-5.08,8.35-10.5,11.13,3.13-.54,5.37-2,8.3-3.91q5.21,6.24,4.49,19.34h1v4.59H300.3l.1-10.45c0-3.9-2.3-9.13-6.59-9.76h-4.1v20.21H278.08v-59H295C301.72,388.78,306.36,391.61,308.94,397.22Zm-11.86,3.91a2.57,2.57,0,0,0-1.52-.49h-4.83v18.85h4.83c2.1,0,3.13-1.22,3.13-3.71V404.35a4.65,4.65,0,0,0-.2-1.17c1-5.22-1.61-9.28-5.17-13C295.32,393.71,297.47,397.27,297.08,401.13Z"/><line class="cls-8" x1="127.84" y1="454.3" x2="313.31" y2="454.3"/><line class="cls-8" x1="127.84" y1="456.68" x2="313.31" y2="456.68"/></g></g></svg>