<svg xmlns="http://www.w3.org/2000/svg" xmlns:xlink="http://www.w3.org/1999/xlink" width="18" height="18" viewBox="0 0 18 18">
  <defs>
    <clipPath id="clip-path">
      <rect id="Rectangle_664" data-name="Rectangle 664" width="18" height="18" transform="translate(23 11.025)" fill="#fff"/>
    </clipPath>
  </defs>
  <g id="Mask_Group_183" data-name="Mask Group 183" transform="translate(-23 -11.025)" clip-path="url(#clip-path)">
    <g id="surface1" transform="translate(22.625 10.275)">
      <path id="Path_2294" data-name="Path 2294" d="M12.975,6.45H2.775a.9.9,0,0,0-.9.9v6.9a.9.9,0,0,0,.9.9h10.2a.9.9,0,0,0,.9-.9V7.35A.9.9,0,0,0,12.975,6.45Zm-8.7,5.1a.6.6,0,1,1,.6-.6A.6.6,0,0,1,4.275,11.55Zm2.4,0a.6.6,0,1,1,.6-.6A.6.6,0,0,1,6.675,11.55Zm2.4,0a.6.6,0,1,1,.6-.6A.6.6,0,0,1,9.075,11.55Zm2.4,0a.6.6,0,1,1,.6-.6A.6.6,0,0,1,11.475,11.55Zm-7.5-5.7v-1.2a3.9,3.9,0,0,1,3.9-3.9h.007a3.9,3.9,0,0,1,3.9,3.9v1.2h-.6v-1.2a3.3,3.3,0,0,0-3.3-3.3H7.871a3.3,3.3,0,0,0-3.3,3.3v1.2Z" fill="#fff"/>
    </g>
    <g id="surface1-2" data-name="surface1" transform="translate(28.5 16.525)">
      <g id="Path_2296" data-name="Path 2296" fill="#fff">
        <path d="M 7.25 12.75 C 4.217289924621582 12.75 1.75 10.28271007537842 1.75 7.25 C 1.75 4.217289924621582 4.217289924621582 1.75 7.25 1.75 C 10.28271007537842 1.75 12.75 4.217289924621582 12.75 7.25 C 12.75 10.28271007537842 10.28271007537842 12.75 7.25 12.75 Z M 4.532609939575195 8.641300201416016 L 4.532609939575195 9.38556957244873 L 4.70412015914917 9.214059829711914 L 4.874377727508545 9.043811798095703 L 5.026909828186035 8.891269683837891 L 5.276876449584961 8.641300201416016 L 4.532609939575195 8.641300201416016 Z M 9.223123550415039 5.858699798583984 L 9.967390060424805 5.858699798583984 L 9.967390060424805 5.114429950714111 L 9.794989585876465 5.286829948425293 L 9.625268936157227 5.456541538238525 L 9.473090171813965 5.608729839324951 L 9.223123550415039 5.858699798583984 Z" stroke="none"/>
        <path d="M 7.25 2 C 4.354829788208008 2 2 4.354829788208008 2 7.25 C 2 10.14517021179199 4.354829788208008 12.5 7.25 12.5 C 10.14517021179199 12.5 12.5 10.14517021179199 12.5 7.25 C 12.5 4.354829788208008 10.14517021179199 2 7.25 2 M 9.618209838867188 5.110050201416016 L 10.2173900604248 4.510869979858398 L 10.2173900604248 6.108699798583984 L 8.619560241699219 6.108699798583984 L 9.296310424804688 5.431949615478516 C 8.779170036315918 4.850589752197266 8.04088020324707 4.510869979858398 7.25 4.510869979858398 C 5.73954963684082 4.510869979858398 4.510869979858398 5.73954963684082 4.510869979858398 7.25 L 4.054349899291992 7.25 C 4.054349899291992 5.488120079040527 5.488120079040527 4.054349899291992 7.25 4.054349899291992 C 8.16392993927002 4.054349899291992 9.016349792480469 4.443989753723145 9.618209838867188 5.110050201416016 M 7.25 10.44565010070801 C 6.338740348815918 10.44565010070801 5.482760429382324 10.05690002441406 4.880900382995605 9.390840530395508 L 4.282609939575195 9.989130020141602 L 4.282609939575195 8.391300201416016 L 5.880430221557617 8.391300201416016 L 5.203689575195313 9.068050384521484 C 5.719940185546875 9.649410247802734 6.46090030670166 9.989130020141602 7.25 9.989130020141602 C 8.76045036315918 9.989130020141602 9.989130020141602 8.76045036315918 9.989130020141602 7.25 L 10.44565010070801 7.25 C 10.44565010070801 9.011899948120117 9.011899948120117 10.44565010070801 7.25 10.44565010070801 M 7.25 1.5 C 10.42055988311768 1.5 13 4.079440116882324 13 7.25 C 13 10.42055988311768 10.42055988311768 13 7.25 13 C 4.079440116882324 13 1.5 10.42055988311768 1.5 7.25 C 1.5 4.079440116882324 4.079440116882324 1.5 7.25 1.5 Z" stroke="none" fill="#e29707"/>
      </g>
    </g>
  </g>
</svg>
