<svg xmlns="http://www.w3.org/2000/svg" xmlns:xlink="http://www.w3.org/1999/xlink" width="18" height="18" viewBox="0 0 18 18">
  <defs>
    <clipPath id="clip-path">
      <rect id="Rectangle_664" data-name="Rectangle 664" width="18" height="18" transform="translate(226 135)" fill="#fff"/>
    </clipPath>
  </defs>
  <g id="Mask_Group_169" data-name="Mask Group 169" transform="translate(-226 -135)" clip-path="url(#clip-path)">
    <g id="surface1" transform="translate(223.857 133.286)">
      <path id="Path_2280" data-name="Path 2280" d="M3.429,1.714A1.263,1.263,0,0,0,2.143,3V18.429a1.263,1.263,0,0,0,1.286,1.286H18.857a1.263,1.263,0,0,0,1.286-1.286V5.657a.389.389,0,0,0-.129-.3L16.5,1.843a.389.389,0,0,0-.3-.129Zm2.143.857H15.857V7.714A.859.859,0,0,1,15,8.571H6.429a.859.859,0,0,1-.857-.857Zm6.857,1.286V7.286h1.714V3.857Zm-6,7.714h9.429a.859.859,0,0,1,.857.857v6.429H5.571V12.429A.859.859,0,0,1,6.429,11.571Zm-3,6h.857v.857H3.429Zm14.571,0h.857v.857H18Z" fill="#fff"/>
    </g>
  </g>
</svg>
